<svg
    xmlns="http://www.w3.org/2000/svg"
    viewBox="0 0 9 9"
    id="vector">
    <path
        id="path"
        d="M 4.5 0 C 3.307 0 2.162 0.474 1.318 1.318 C 0.474 2.162 0 3.307 0 4.5 C 0 5.693 0.474 6.838 1.318 7.682 C 2.162 8.526 3.307 9 4.5 9 C 5.693 9 6.838 8.526 7.682 7.682 C 8.526 6.838 9 5.693 9 4.5 C 9 3.307 8.526 2.162 7.682 1.318 C 6.838 0.474 5.693 0 4.5 0 Z"
        fill="#9ace7c"
        stroke-width="1"/>
    <path
        id="path_1"
        d="M 6.8 4.5 L 4.9 2.6 C 4.8 2.5 4.6 2.5 4.5 2.6 L 4.2 2.9 C 4.1 3 4.1 3.1 4.2 3.2 L 5.2 4.1 L 1.9 4.1 C 1.6 4.1 1.4 4.2 1.4 4.5 L 1.4 5 C 1.4 5.2 1.8 5.2 1.9 5.2 L 5.2 5.2 L 4.2 6.2 C 4.1 6.3 4.1 6.5 4.2 6.6 L 4.4 6.8 C 4.6 7 4.7 7 4.9 6.9 L 6.8 5 C 6.9 4.9 6.9 4.9 6.9 4.8 C 6.9 4.7 6.8 4.6 6.8 4.5 Z"
        fill="#ffffff"
        stroke-width="1"/>
</svg>
