<svg
    xmlns="http://www.w3.org/2000/svg"
    viewBox="0 0 121 95"
    id="vector">
    <path
        id="path"
        d="M 63.5 29 C 63.5 29 92.5 27 106.3 52.9 C 106.2 53 65.7 28.3 63.5 29 Z M 105.4 74.6 C 105.4 74.6 90.8 98.9 61.8 94.5 C 61.9 94.5 102.3 73.9 105.4 74.6 Z"
        fill="#548548"
        stroke-width="1"/>
    <path
        id="path_1"
        d="M 111.8 64.8 C 111.8 64.8 88 117.3 25.9 83 C 25.9 83 18.8 80.6 0.1 59 L 111.8 64.8 Z"
        fill="#85c774"
        stroke-width="1"/>
    <path
        id="path_2"
        d="M 28.3 36.9 C 28.3 36.9 27.7 37 26.4 37.6 C 27.2 38.7 27.7 40 27.6 41.4 C 27.4 44.6 24.7 47 21.6 46.8 C 19.5 46.7 17.7 45.4 16.8 43.7 C 12.6 46.8 7.1 51.4 0.1 58 L 111.8 63.8 C 111.8 63.9 93.6 9.1 28.3 36.9 Z"
        fill="#77b868"
        stroke-width="1"/>
    <path
        id="path_3"
        d="M 48 82.6 C 47.323 82.598 46.662 82.811 46.114 83.208 C 45.565 83.604 45.157 84.165 44.947 84.809 C 44.737 85.453 44.737 86.147 44.947 86.791 C 45.157 87.435 45.565 87.996 46.114 88.392 C 46.662 88.789 47.323 89.002 48 89 C 48.677 89.002 49.338 88.789 49.886 88.392 C 50.435 87.996 50.843 87.435 51.053 86.791 C 51.263 86.147 51.263 85.453 51.053 84.809 C 50.843 84.165 50.435 83.604 49.886 83.208 C 49.338 82.811 48.677 82.598 48 82.6 Z M 81.2 73.1 C 79.901 73.1 78.654 73.617 77.735 74.535 C 76.817 75.454 76.3 76.701 76.3 78 C 76.3 79.299 76.817 80.546 77.735 81.465 C 78.654 82.383 79.901 82.9 81.2 82.9 C 82.499 82.9 83.746 82.383 84.665 81.465 C 85.583 80.546 86.1 79.299 86.1 78 C 86.1 76.701 85.583 75.454 84.665 74.535 C 83.746 73.617 82.499 73.1 81.2 73.1 Z"
        fill="#9ace7c"
        stroke-width="1"/>
    <path
        id="path_4"
        d="M 79.4 35.3 C 78.552 35.3 77.737 35.637 77.137 36.237 C 76.537 36.837 76.2 37.652 76.2 38.5 C 76.2 39.348 76.537 40.163 77.137 40.763 C 77.737 41.363 78.552 41.7 79.4 41.7 C 80.248 41.7 81.063 41.363 81.663 40.763 C 82.263 40.163 82.6 39.348 82.6 38.5 C 82.6 37.652 82.263 36.837 81.663 36.237 C 81.063 35.637 80.248 35.3 79.4 35.3 Z M 85.4 40.4 C 85.041 40.4 84.691 40.514 84.401 40.725 C 84.11 40.936 83.894 41.233 83.783 41.575 C 83.672 41.916 83.672 42.284 83.783 42.625 C 83.894 42.967 84.11 43.264 84.401 43.475 C 84.691 43.686 85.041 43.8 85.4 43.8 C 85.759 43.8 86.109 43.686 86.399 43.475 C 86.69 43.264 86.906 42.967 87.017 42.625 C 87.128 42.284 87.128 41.916 87.017 41.575 C 86.906 41.233 86.69 40.936 86.399 40.725 C 86.109 40.514 85.759 40.4 85.4 40.4 Z M 95 53.1 C 94.641 53.1 94.291 53.214 94.001 53.425 C 93.71 53.636 93.494 53.933 93.383 54.275 C 93.272 54.616 93.272 54.984 93.383 55.325 C 93.494 55.667 93.71 55.964 94.001 56.175 C 94.291 56.386 94.641 56.5 95 56.5 C 95.359 56.5 95.709 56.386 95.999 56.175 C 96.29 55.964 96.506 55.667 96.617 55.325 C 96.728 54.984 96.728 54.616 96.617 54.275 C 96.506 53.933 96.29 53.636 95.999 53.425 C 95.709 53.214 95.359 53.1 95 53.1 Z"
        fill="#649e57"
        stroke-width="1"/>
    <path
        id="path_5"
        d="M 21.4 70.8 C 20.956 70.799 20.522 70.938 20.162 71.199 C 19.802 71.459 19.534 71.827 19.397 72.25 C 19.259 72.672 19.259 73.128 19.397 73.55 C 19.534 73.973 19.802 74.341 20.162 74.601 C 20.522 74.862 20.956 75.001 21.4 75 C 21.844 75.001 22.278 74.862 22.638 74.601 C 22.998 74.341 23.266 73.973 23.403 73.55 C 23.541 73.128 23.541 72.672 23.403 72.25 C 23.266 71.827 22.998 71.459 22.638 71.199 C 22.278 70.938 21.844 70.799 21.4 70.8 Z"
        fill="#9ace7c"
        stroke-width="1"/>
    <path
        id="path_6"
        d="M 80 44.1 C 79.443 44.1 78.909 44.321 78.515 44.715 C 78.121 45.109 77.9 45.643 77.9 46.2 C 77.9 46.757 78.121 47.291 78.515 47.685 C 78.909 48.079 79.443 48.3 80 48.3 C 80.557 48.3 81.091 48.079 81.485 47.685 C 81.879 47.291 82.1 46.757 82.1 46.2 C 82.1 45.643 81.879 45.109 81.485 44.715 C 81.091 44.321 80.557 44.1 80 44.1 Z"
        fill="#649e57"
        stroke-width="1"/>
    <path
        id="path_7"
        d="M 17.6 65 C 17.282 65 16.976 65.127 16.751 65.351 C 16.527 65.576 16.4 65.882 16.4 66.2 C 16.4 66.518 16.527 66.824 16.751 67.049 C 16.976 67.273 17.282 67.4 17.6 67.4 C 17.918 67.4 18.224 67.273 18.449 67.049 C 18.673 66.824 18.8 66.518 18.8 66.2 C 18.8 65.882 18.673 65.576 18.449 65.351 C 18.224 65.127 17.918 65 17.6 65 Z M 53.3 87 C 53.046 86.999 52.798 87.079 52.593 87.228 C 52.387 87.377 52.234 87.587 52.155 87.828 C 52.077 88.07 52.077 88.33 52.155 88.572 C 52.234 88.813 52.387 89.023 52.593 89.172 C 52.798 89.321 53.046 89.401 53.3 89.4 C 53.554 89.401 53.802 89.321 54.007 89.172 C 54.213 89.023 54.366 88.813 54.445 88.572 C 54.523 88.33 54.523 88.07 54.445 87.828 C 54.366 87.587 54.213 87.377 54.007 87.228 C 53.802 87.079 53.554 86.999 53.3 87 Z"
        fill="#9ace7c"
        stroke-width="1"/>
    <path
        id="path_8"
        d="M 34.2 60.8 C 34.2 60.8 31.7 62.5 33.6 73 C 33.6 73 32.1 61.8 36.3 60.9 L 34.2 60.8 Z M 34.5 60.3 C 34.5 60.3 31.6 55.8 35.5 47 C 35.5 47 31.9 57 36.3 60.4 L 34.5 60.3 Z M 49.7 61.3 C 49.7 61.3 43.3 68.7 48.2 76.5 C 48.2 76.5 43 68.5 51.5 61.4 L 49.7 61.3 Z M 49.7 60.5 C 49.7 60.5 45.5 57.2 48.3 45.2 C 48.3 45.2 45.5 57.2 51.6 60.6 L 49.7 60.5 Z M 63.5 61.5 C 63.5 61.5 59.2 68.9 63.1 80 C 63.1 80 60 70.9 65 61.5 L 63.5 61.5 Z"
        fill="#548548"
        stroke-width="1"/>
    <path
        id="path_9"
        d="M 63.4 61.8 C 63.4 61.8 60.1 54.7 64.3 45.3 C 64.3 45.3 60.3 53.9 65 61.9 L 63.4 61.8 Z"
        fill="#548548"
        stroke-width="1"/>
    <path
        id="path_10"
        d="M 0.1 59 C 0.1 59 -0.2 58.5 0.2 58 L 111.9 63.8 C 111.9 63.8 112 64.6 111.8 64.8 L 0.1 59 Z"
        fill="#548548"
        stroke-width="1"/>
    <path
        id="path_11"
        d="M 77.6 63 C 77.6 63 73.6 70.8 75 76.1 C 75 76.1 74.4 68.8 78.6 63.1 L 77.6 63 Z M 77.8 61.9 L 78.8 62.3 C 78.8 62.3 75.9 58.2 77.7 50 C 77.7 50 75.8 54.8 77.8 61.9 Z"
        fill="#548548"
        stroke-width="1"/>
    <g id="group">
        <path
            id="path_12"
            d="M 85.3 5.5 C 85.3 5.5 115.8 14.5 120 46.3 C 119.9 46.3 87.8 5.6 85.3 5.5 Z M 110.9 68.1 C 110.9 68.1 86.7 87.4 58.7 71.9 C 58.7 72 107.9 66.2 110.9 68.1 Z"
            fill="#548548"
            stroke-width="1"/>
        <path
            id="path_13"
            d="M 121.1 60.5 C 121.1 60.5 76.7 105.2 26.3 46.4 C 26.3 46.4 19.9 41.3 9 12 L 121.1 60.5 Z"
            fill="#85c774"
            stroke-width="1"/>
        <path
            id="path_14"
            d="M 46.3 0.1 C 46.3 0.1 45.7 0 44.1 0.2 C 44.6 1.6 44.5 3.1 43.9 4.6 C 42.5 7.8 38.9 9.2 35.7 7.9 C 33.6 7 32.2 5 32 2.9 C 26.4 4.5 19.1 7 9.4 11.1 L 121.5 59.6 C 121.5 59.6 123.7 -3.4 46.3 0.1 Z"
            fill="#77b868"
            stroke-width="1"/>
        <path
            id="path_15"
            d="M 47.8 54.3 C 47.061 54.3 46.341 54.534 45.743 54.968 C 45.145 55.403 44.7 56.016 44.471 56.718 C 44.243 57.421 44.243 58.179 44.471 58.882 C 44.7 59.584 45.145 60.197 45.743 60.632 C 46.341 61.066 47.061 61.3 47.8 61.3 C 48.539 61.3 49.259 61.066 49.857 60.632 C 50.455 60.197 50.9 59.584 51.129 58.882 C 51.357 58.179 51.357 57.421 51.129 56.718 C 50.9 56.016 50.455 55.403 49.857 54.968 C 49.259 54.534 48.539 54.3 47.8 54.3 Z M 84.7 57 C 83.56 57 82.448 57.361 81.526 58.031 C 80.604 58.701 79.917 59.647 79.564 60.731 C 79.212 61.816 79.212 62.984 79.564 64.069 C 79.917 65.153 80.604 66.099 81.526 66.769 C 82.448 67.439 83.56 67.8 84.7 67.8 C 85.84 67.8 86.952 67.439 87.874 66.769 C 88.796 66.099 89.483 65.153 89.836 64.069 C 90.188 62.984 90.188 61.816 89.836 60.731 C 89.483 59.647 88.796 58.701 87.874 58.031 C 86.952 57.361 85.84 57 84.7 57 Z"
            fill="#9ace7c"
            stroke-width="1"/>
        <path
            id="path_16"
            d="M 97.9 17.7 C 96.972 17.7 96.081 18.069 95.425 18.725 C 94.769 19.381 94.4 20.272 94.4 21.2 C 94.4 22.128 94.769 23.019 95.425 23.675 C 96.081 24.331 96.972 24.7 97.9 24.7 C 98.828 24.7 99.719 24.331 100.375 23.675 C 101.031 23.019 101.4 22.128 101.4 21.2 C 101.4 20.272 101.031 19.381 100.375 18.725 C 99.719 18.069 98.828 17.7 97.9 17.7 Z M 102.7 25.5 C 102.319 25.499 101.948 25.618 101.639 25.842 C 101.331 26.065 101.101 26.381 100.983 26.743 C 100.865 27.105 100.865 27.495 100.983 27.857 C 101.101 28.219 101.331 28.535 101.639 28.758 C 101.948 28.982 102.319 29.101 102.7 29.1 C 103.081 29.101 103.452 28.982 103.761 28.758 C 104.069 28.535 104.299 28.219 104.417 27.857 C 104.535 27.495 104.535 27.105 104.417 26.743 C 104.299 26.381 104.069 26.065 103.761 25.842 C 103.452 25.618 103.081 25.499 102.7 25.5 Z M 107.7 42.1 C 107.223 42.1 106.765 42.29 106.427 42.627 C 106.09 42.965 105.9 43.423 105.9 43.9 C 105.9 44.377 106.09 44.835 106.427 45.173 C 106.765 45.51 107.223 45.7 107.7 45.7 C 108.177 45.7 108.635 45.51 108.973 45.173 C 109.31 44.835 109.5 44.377 109.5 43.9 C 109.5 43.423 109.31 42.965 108.973 42.627 C 108.635 42.29 108.177 42.1 107.7 42.1 Z"
            fill="#649e57"
            stroke-width="1"/>
        <path
            id="path_17"
            d="M 25.4 32 C 24.79 32 24.205 32.242 23.774 32.674 C 23.342 33.105 23.1 33.69 23.1 34.3 C 23.1 34.91 23.342 35.495 23.774 35.926 C 24.205 36.358 24.79 36.6 25.4 36.6 C 26.01 36.6 26.595 36.358 27.026 35.926 C 27.458 35.495 27.7 34.91 27.7 34.3 C 27.7 33.69 27.458 33.105 27.026 32.674 C 26.595 32.242 26.01 32 25.4 32 Z"
            fill="#9ace7c"
            stroke-width="1"/>
        <path
            id="path_18"
            d="M 95.6 27.1 C 94.99 27.1 94.405 27.342 93.974 27.774 C 93.542 28.205 93.3 28.79 93.3 29.4 C 93.3 30.01 93.542 30.595 93.974 31.026 C 94.405 31.458 94.99 31.7 95.6 31.7 C 96.21 31.7 96.795 31.458 97.226 31.026 C 97.658 30.595 97.9 30.01 97.9 29.4 C 97.9 28.79 97.658 28.205 97.226 27.774 C 96.795 27.342 96.21 27.1 95.6 27.1 Z"
            fill="#649e57"
            stroke-width="1"/>
        <path
            id="path_19"
            d="M 24.1 24.8 C 23.755 24.8 23.424 24.937 23.181 25.181 C 22.937 25.424 22.8 25.755 22.8 26.1 C 22.8 26.445 22.937 26.776 23.181 27.019 C 23.424 27.263 23.755 27.4 24.1 27.4 C 24.445 27.4 24.776 27.263 25.019 27.019 C 25.263 26.776 25.4 26.445 25.4 26.1 C 25.4 25.755 25.263 25.424 25.019 25.181 C 24.776 24.937 24.445 24.8 24.1 24.8 Z M 52.3 60.9 C 51.955 60.9 51.624 61.037 51.381 61.281 C 51.137 61.524 51 61.855 51 62.2 C 51 62.545 51.137 62.876 51.381 63.119 C 51.624 63.363 51.955 63.5 52.3 63.5 C 52.645 63.5 52.976 63.363 53.219 63.119 C 53.463 62.876 53.6 62.545 53.6 62.2 C 53.6 61.855 53.463 61.524 53.219 61.281 C 52.976 61.037 52.645 60.9 52.3 60.9 Z"
            fill="#9ace7c"
            stroke-width="1"/>
        <path
            id="path_20"
            d="M 43.2 26.8 C 43.2 26.8 40 27.6 37.9 39 C 37.9 39 40.7 26.9 45.3 27.7 L 43.2 26.8 Z M 43.7 26.4 C 43.7 26.4 42.4 20.7 49.8 13.2 C 49.8 13.2 42.3 22.1 45.5 27.2 L 43.7 26.4 Z M 58.8 33.3 C 58.8 33.3 49.4 38.4 51.5 48.3 C 51.5 48.3 49.3 38.2 60.7 34.1 L 58.8 33.3 Z M 59.2 32.5 C 59.2 32.5 56.2 27.5 63.6 16.3 C 63.6 16.3 56.2 27.5 61.1 33.3 L 59.2 32.5 Z M 72.9 38.7 C 72.9 38.7 65.6 44.7 65.4 57.5 C 65.4 57.5 65.6 47 74.3 39.3 L 72.9 38.7 Z"
            fill="#548548"
            stroke-width="1"/>
        <path
            id="path_21"
            d="M 72.7 39 C 72.7 39 72.1 30.5 79.9 22.4 C 79.9 22.4 72.5 29.6 74.3 39.7 L 72.7 39 Z"
            fill="#548548"
            stroke-width="1"/>
        <path
            id="path_22"
            d="M 9 12 C 9 12 8.9 11.4 9.4 11 L 121.5 59.5 C 121.5 59.5 121.3 60.3 121.1 60.5 L 9 12 Z M 86.7 45.7 C 86.7 45.7 79.6 52.2 79 58.1 C 79 58.1 81.1 50.4 87.6 46.1 L 86.7 45.7 Z"
            fill="#548548"
            stroke-width="1"/>
        <path
            id="path_23"
            d="M 87.4 44.7 L 88.3 45.4 C 88.3 45.4 86.9 40.1 91.8 32.4 C 91.8 32.4 88 36.6 87.4 44.7 Z"
            fill="#548548"
            stroke-width="1"/>
    </g>
</svg>
