<svg
    xmlns="http://www.w3.org/2000/svg"
    viewBox="0 0 57 57"
    id="vector">
    <path
        id="path"
        d="M 28.9 0 C 21.238 0 13.882 3.047 8.465 8.465 C 3.047 13.882 0 21.238 0 28.9 C 0 36.562 3.047 43.918 8.465 49.335 C 13.882 54.753 21.238 57.8 28.9 57.8 C 36.562 57.8 43.918 54.753 49.335 49.335 C 54.753 43.918 57.8 36.562 57.8 28.9 C 57.8 21.238 54.753 13.882 49.335 8.465 C 43.918 3.047 36.562 0 28.9 0 Z"
        fill="#e2e2e1"
        stroke-width="1"/>
    <path
        id="path_1"
        d="M 26.8 11.4 C 20.8 11.4 15.9 16.3 15.9 22.3 C 15.9 28.3 20.8 33.2 26.8 33.2 C 32.8 33.2 37.7 28.3 37.7 22.3 C 37.7 16.3 32.8 11.4 26.8 11.4 Z M 26.8 28.6 C 23.4 28.6 20.6 25.8 20.6 22.4 C 20.6 19 23.4 16.2 26.8 16.2 C 30.2 16.2 33 19 33 22.4 C 33 25.8 30.2 28.6 26.8 28.6 Z"
        fill="#727273"
        stroke-width="1"/>
    <path
        id="path_2"
        d="M 38.4 44.2 C 37.4 44.7 36.1 44.4 35.5 43.3 L 30.7 34.3 C 30.2 33.3 30.5 32 31.6 31.4 C 32.6 30.9 33.9 31.2 34.5 32.3 L 39.3 41.3 C 39.8 42.4 39.4 43.7 38.4 44.2 Z"
        fill="#727273"
        stroke-width="1"/>
</svg>
