<svg
    xmlns="http://www.w3.org/2000/svg"
    viewBox="0 0 19 19"
    id="vector">
    <g id="group_1">
        <path
            id="path"
            d="M 0.4 1.5 L 1.5 0.4 C 2 -0.1 2.8 -0.1 3.3 0.4 L 11.9 9 C 12.4 9.5 12.4 10.3 11.9 10.8 L 10.8 11.9 C 10.3 12.4 9.5 12.4 9 11.9 L 0.4 3.2 C -0.1 2.8 -0.1 2 0.4 1.5 Z"
            fill="#ffffff"
            stroke-width="1"/>
        <path
            id="path_1"
            d="M 1.5 19.3 L 0.4 18.2 C -0.1 17.7 -0.1 16.9 0.4 16.4 L 9 7.8 C 9.5 7.3 10.3 7.3 10.8 7.8 L 11.9 8.9 C 12.4 9.4 12.4 10.2 11.9 10.7 L 3.3 19.3 C 2.8 19.8 2 19.8 1.5 19.3 Z"
            fill="#ffffff"
            stroke-width="1"/>
        <g id="group">
            <path
                id="path_2"
                d="M 18.8 18.2 L 17.7 19.3 C 17.2 19.8 16.4 19.8 15.9 19.3 L 7.3 10.7 C 6.8 10.2 6.8 9.4 7.3 8.9 L 8.4 7.8 C 8.9 7.3 9.7 7.3 10.2 7.8 L 18.8 16.4 C 19.3 16.9 19.3 17.7 18.8 18.2 Z"
                fill="#ffffff"
                stroke-width="1"/>
            <path
                id="path_3"
                d="M 17.7 0.4 L 18.8 1.5 C 19.3 2 19.3 2.8 18.8 3.3 L 10.2 11.9 C 9.7 12.4 8.9 12.4 8.4 11.9 L 7.3 10.8 C 6.8 10.3 6.8 9.5 7.3 9 L 15.9 0.4 C 16.4 -0.1 17.2 -0.1 17.7 0.4 Z"
                fill="#ffffff"
                stroke-width="1"/>
        </g>
    </g>
</svg>
